<svg xmlns="http://www.w3.org/2000/svg" xmlns:xlink="http://www.w3.org/1999/xlink" viewBox="0 0 833.34 343.17"><defs><style>.a{fill:none;}.b{fill:#ebd6ba;}.b,.g{stroke:#231f20;stroke-linejoin:round;stroke-width:1.5px;}.c{opacity:0.8;}.d{clip-path:url(#a);}.e,.g{fill:#e7a773;}.f{clip-path:url(#b);}.h{opacity:0.7;}.i,.l{font-size:80px;font-family:Arvo;font-weight:700;}.i{letter-spacing:2.5px;}.j{letter-spacing:3.33px;}.k{letter-spacing:4.17px;}.m{letter-spacing:3px;}.n{letter-spacing:1px;}.o{letter-spacing:4px;}</style><clipPath id="a" transform="translate(-35.88 -47.58)"><polygon class="a" points="847.51 182.96 798 162.46 827.73 115.68 729.21 141.57 734.2 221.64 847.51 182.96"/></clipPath><clipPath id="b" transform="translate(-35.88 -47.58)"><polygon class="a" points="57.25 156.38 104 179.95 75 231.88 179.75 201.5 174.06 117.88 57.25 156.38"/></clipPath></defs><title>Mike Banner</title><polygon class="b" points="664.59 96.51 676.88 139.49 676.92 139.48 689.92 181.08 832.59 138.42 780.28 107.96 807.24 53.8 664.59 96.51"/><polygon class="b" points="172.61 148.66 160.32 105.68 160.28 105.69 147.28 64.08 4.61 106.75 56.92 137.21 29.95 191.36 172.61 148.66"/><g class="c"><g class="d"><polygon class="e" points="698.35 169.66 832.4 124.62 715.41 155.2 698.35 169.66"/><polygon class="e" points="714.96 97.36 822.02 62.85 714.48 89.98 714.96 97.36"/><polygon class="e" points="716.31 150.81 822.76 117.06 715.07 144.29 716.31 150.81"/><polygon class="e" points="727.6 133.72 815.4 109.23 717.43 128.11 727.6 133.72"/><polygon class="e" points="717.85 110.77 814.43 77.23 716.75 102.72 717.85 110.77"/><polygon class="e" points="718.94 122.31 814.03 91.08 716.66 116.9 718.94 122.31"/></g></g><g class="c"><g class="f"><polygon class="e" points="138.18 74.88 0 119.67 120.66 89.69 138.18 74.88"/><polygon class="e" points="121.51 150.04 11.13 184.3 122.05 157.75 121.51 150.04"/><polygon class="e" points="109.21 97.47 10 127.72 110.54 104.29 109.21 97.47"/><polygon class="e" points="108.21 111.89 17.66 136.01 118.75 117.92 108.21 111.89"/><polygon class="e" points="118.43 136.01 18.88 169.42 119.63 144.42 118.43 136.01"/><polygon class="e" points="117.23 123.95 19.2 154.97 119.63 129.63 117.23 123.95"/></g></g><polygon class="g" points="665.99 101.42 689.92 181.08 741.46 126.75 665.99 101.42"/><polygon class="g" points="147.63 64.08 86.82 114.87 101.98 202.08 169.04 181.08 46.15 255.39 370.66 152.9 467.7 87.55 156.62 93.32 147.63 64.08"/><g class="h"><line class="g" x1="196.88" y1="163.92" x2="46.15" y2="255.39"/><line class="g" x1="223.71" y1="156.41" x2="75.05" y2="247.44"/><line class="g" x1="250.55" y1="148.91" x2="103.95" y2="239.48"/><line class="g" x1="277.39" y1="141.4" x2="132.85" y2="231.53"/><line class="g" x1="304.23" y1="133.89" x2="161.75" y2="223.58"/><line class="g" x1="331.07" y1="126.39" x2="190.65" y2="215.63"/><line class="g" x1="357.91" y1="118.88" x2="219.55" y2="207.68"/><line class="g" x1="384.75" y1="111.38" x2="248.45" y2="199.73"/><line class="g" x1="411.59" y1="103.87" x2="277.35" y2="191.77"/><line class="g" x1="438.43" y1="96.37" x2="306.25" y2="183.82"/><line class="g" x1="465.27" y1="88.86" x2="335.15" y2="175.87"/></g><g class="h"><line class="g" x1="147.63" y1="64.08" x2="86.83" y2="114.87"/><line class="g" x1="149.87" y1="71.39" x2="88.31" y2="121.47"/><line class="g" x1="152.12" y1="78.7" x2="89.8" y2="128.06"/><line class="g" x1="154.37" y1="86.01" x2="91.28" y2="134.66"/><line class="g" x1="156.62" y1="93.32" x2="92.76" y2="141.25"/></g><g class="h"><line class="g" x1="689.92" y1="181.08" x2="741.46" y2="126.94"/><line class="g" x1="687.56" y1="173.51" x2="739.23" y2="120.56"/><line class="g" x1="685.19" y1="165.95" x2="737" y2="114.18"/><line class="g" x1="682.82" y1="158.38" x2="734.77" y2="107.8"/><line class="g" x1="680.46" y1="150.81" x2="732.54" y2="101.42"/></g><polygon class="b" points="467.71 87.37 101.46 202.08 86.83 114.87 453.64 0.75 467.71 87.37"/><polygon class="b" points="741.64 126.75 60.79 342.42 45.8 255.75 727.74 39.95 741.64 126.75"/><text class="i" transform="translate(150.01 173.76) rotate(-17.44) scale(1.2 1)">M<tspan class="j" x="94.3" y="0">I</tspan><tspan x="130.06" y="0">K</tspan><tspan class="k" x="197.84" y="0">E</tspan></text><text class="l" transform="translate(98.47 317.7) rotate(-17.51)">D<tspan class="m" x="57.62" y="0">E</tspan><tspan class="n" x="114.72" y="0">B</tspan><tspan class="m" x="170.81" y="0">E</tspan><tspan class="n" x="228.07" y="0">N</tspan><tspan class="o" x="295.94" y="0">E</tspan><tspan x="354.01" y="0">D</tspan><tspan class="n" x="411.63" y="0">I</tspan><tspan class="n" x="445.11" y="0">C</tspan><tspan class="n" x="507.46" y="0">T</tspan><tspan class="m" x="565.29" y="0">I</tspan><tspan class="m" x="600.33" y="0">S</tspan></text></svg>